# xmcd CD database file
#
# Track frame offsets:
#	150
#	7789
#	26742
#	42871
#	56761
#	79702
#	101887
#	116274
#	138519
#	159454
#
# Disc length: 2344 seconds
#
# Revision: 0
# Processed by: cddbd v1.5.2PL0 Copyright (c) Steve Scherf et al.
# Submitted via: CDex 1.70beta3
#
DISCID=7609260a
DTITLE=TESTIMO FEAT. KOOL - TESTIMO FEAT. KOOL
DYEAR=2014
DGENRE=Jazz
TTITLE0=Pulse Evolution (Inst.)
TTITLE1=Magic
TTITLE2=Trouble Maker
TTITLE3=before (Inst.)
TTITLE4=パズル
TTITLE5=大丈夫だよ
TTITLE6=アルビノ
TTITLE7=参年タイムキーパー
TTITLE8=地球最後の告白を
TTITLE9=絶対零度ファンク
EXTD=YEAR: 2014
EXTT0=
EXTT1=
EXTT2=
EXTT3=
EXTT4=
EXTT5=
EXTT6=
EXTT7=
EXTT8=
EXTT9=
PLAYORDER=
